# xmcd
#
# Track frame offsets: 
#        150
#        14786
#        29555
#        49583
#        62881
#        78218
#        98870
#        112747
#        127770
#        141728
#
# Disc length: 2159 seconds
#
# Revision: 0
# Processed by: cddbd v1.5.2PL0 Copyright (c) Steve Scherf et al.
# Submitted via: ExactAudioCopy v0.99pb5
#
DISCID=85086d0a
DTITLE=Jeremy Steding - A Damn Good Ride 
DYEAR=2009
DGENRE=Country
TTITLE0=Can't Slow Down
TTITLE1=A Damn Good Ride
TTITLE2=Let the Boys Drink Whiskey
TTITLE3=The Day to Day Today
TTITLE4=Auburn
TTITLE5=Can You Teach Me How to Dance
TTITLE6=South Texas Blues
TTITLE7=One Way Ticket
TTITLE8=The Sand Panther Medicine Show
TTITLE9=A Long Drive Home
EXTD=
EXTT0=
EXTT1=
EXTT2=
EXTT3=
EXTT4=
EXTT5=
EXTT6=
EXTT7=
EXTT8=
EXTT9=
PLAYORDER=
